<?xml version="1.0" encoding="utf-8"?>
<!-- Generator: Adobe Illustrator 25.0.0, SVG Export Plug-In . SVG Version: 6.00 Build 0)  -->
<svg version="1.1" id="Layer_1" xmlns="http://www.w3.org/2000/svg" xmlns:xlink="http://www.w3.org/1999/xlink" x="0px" y="0px"
	 viewBox="0 0 767.28 669.6" style="enable-background:new 0 0 767.28 669.6;" xml:space="preserve">
<style type="text/css">
	.st0{display:none;}
	.st1{display:inline;fill:none;}
	.st2{display:inline;fill:#FFFFFF;}
	.st3{display:none;fill:#FFFFFF;}
	.st4{fill:none;}
	.st5{fill:#FFFFFF;}
</style>
<g class="st0">
	<path class="st1" d="M604.65,204.8H241.77v234.4h92.64l-14.57,70.63l97.16-70.63h187.66V204.8z M548.93,388.56H297.48v-21h251.46
		V388.56z M548.93,332.5H297.48v-21h251.46V332.5z M548.93,276.45H297.48v-21h251.46V276.45z"/>
	<polygon class="st1" points="220.77,365.58 220.77,183.8 525.52,183.8 525.52,131.18 162.64,131.18 162.64,365.58 	"/>
	<rect x="297.48" y="255.45" class="st2" width="251.46" height="21"/>
	<rect x="297.48" y="311.5" class="st2" width="251.46" height="21"/>
	<rect x="297.48" y="367.56" class="st2" width="251.46" height="21"/>
	<path class="st2" d="M546.52,183.8v-73.62H141.64v276.4h79.13v73.62h87.83l-20.47,99.22l136.49-99.22h201.03V183.8H546.52z
		 M319.83,509.83l14.57-70.63h-92.64V204.8h362.88v234.4H416.99L319.83,509.83z M525.52,131.18v52.62H220.77v181.78h-58.13v-234.4
		H525.52z"/>
</g>
<polygon class="st3" points="607.77,323.8 394.65,323.8 394.65,110.68 372.64,110.68 372.64,323.8 159.51,323.8 159.51,345.81 
	372.64,345.81 372.64,558.93 394.65,558.93 394.65,345.81 607.77,345.81 "/>
<g class="st0">
	<rect x="160.14" y="324.3" class="st2" width="447.01" height="21"/>
</g>
<g class="st0">
	<polygon class="st1" points="538.67,241.35 500.18,241.35 500.18,288.87 480.8,288.87 480.8,241.35 374.22,241.35 286.48,241.35 
		286.48,288.87 267.1,288.87 267.1,241.35 228.62,241.35 203.23,541.13 373.32,541.13 374.22,541.13 564.05,541.13 	"/>
	<path class="st1" d="M480.8,222.5v-13.32c-0.36-5.38-6.99-80.17-97.16-80.17c-90.04,0-96.78,74.59-97.16,80.18v13.31h87.73H480.8z"
		/>
	<path class="st2" d="M555.99,222.5h-55.8v-13.61l-0.01-0.49c-0.05-1.02-1.43-25.17-16.5-49.42c-14-22.52-42.72-49.36-100.03-49.36
		c-57.31,0-86.03,26.84-100.03,49.36c-15.07,24.24-16.45,48.4-16.5,49.42l-0.01,0.24v13.85h-55.8l-28.58,337.48h190.6h0.9h210.35
		L555.99,222.5z M286.48,209.19c0.38-5.59,7.11-80.18,97.16-80.18c90.17,0,96.8,74.79,97.16,80.17v13.32H374.22h-87.73V209.19z
		 M373.32,541.13H203.23l25.38-299.78h38.48v47.52h19.39v-47.52h87.73H480.8v47.52h19.39v-47.52h38.48l25.38,299.78H374.22H373.32z"
		/>
</g>
<g class="st0">
	
		<ellipse transform="matrix(0.7071 -0.7071 0.7071 0.7071 -103.9494 344.2553)" class="st1" cx="363.58" cy="297.61" rx="164.95" ry="164.95"/>
	<path class="st2" d="M588.57,542.88L486.12,435.89c38.2-33.89,62.32-83.32,62.32-138.29c0-101.94-82.93-184.87-184.87-184.87
		s-184.87,82.93-184.87,184.87s82.93,184.87,184.87,184.87c39.69,0,76.5-12.58,106.65-33.95l103.74,108.34L588.57,542.88z
		 M198.63,297.61c0-90.96,74-164.95,164.95-164.95c90.96,0,164.95,74,164.95,164.95c0,90.95-74,164.95-164.95,164.95
		C272.62,462.56,198.63,388.56,198.63,297.61z"/>
</g>
<g class="st0">
	<path class="st2" d="M551.47,432.52c-8-46.8-40.08-79.33-92.79-94.1c-35.95-10.07-69.49-8.53-75.04-8.19
		c-5.55-0.34-39.08-1.88-75.04,8.19c-52.71,14.77-84.79,47.3-92.79,94.1c-0.77,3.63-6.22,32.16-6.22,116.67v10.15h184.2h8.7h155.2
		v-10.15C557.69,464.68,552.25,436.15,551.47,432.52z M402.49,539.03h-8.7H229.92c0.43-77.68,5.7-102.07,5.74-102.27l0.12-0.62
		c6.6-39.03,32.78-65.29,77.81-78.04c23.8-6.74,57.45-7.84,70.04-7.84l0,0c0.1,0,10.35,0,10.46,0c12.59,0,35.79,1.1,59.59,7.84
		c45.03,12.75,71.21,39.01,77.81,78.04l0.11,0.57c0.06,0.25,5.33,24.64,5.75,102.32H402.49z"/>
	<path class="st2" d="M383.64,313.97c56.16,0,101.85-45.69,101.85-101.85c0-56.16-45.69-101.85-101.85-101.85
		c-56.16,0-101.85,45.69-101.85,101.85C281.79,268.28,327.48,313.97,383.64,313.97z M383.64,130.57c44.97,0,81.55,36.58,81.55,81.55
		c0,44.97-36.58,81.55-81.55,81.55c-44.97,0-81.55-36.58-81.55-81.55C302.09,167.15,338.67,130.57,383.64,130.57z"/>
</g>
<g class="st0">
	<polygon class="st1" points="333.28,298.61 384.18,322.74 586.93,228.83 586.93,228.3 522.14,198.19 	"/>
	<polygon class="st1" points="266.07,266.75 257.3,271.34 257.3,286.71 257.3,340.43 282.2,340.43 300.61,360.08 300.61,307.24 
		300.61,291.3 308.74,286.98 497.36,186.68 455.88,167.4 	"/>
	<polygon class="st1" points="241.41,255.06 430.98,155.84 384.05,134.03 180.35,225.67 180.35,226.11 	"/>
	<polygon class="st1" points="395.02,341.74 395.02,351.86 395.02,530.45 586.93,441.56 586.93,441.03 586.93,417 586.93,252.85 
		410.02,334.79 	"/>
	<polygon class="st1" points="373.23,341.67 358.14,334.52 322.4,317.57 322.4,350.59 322.4,374.49 322.4,415.22 295.56,386.57 
		279.81,369.76 272.75,362.22 235.5,362.22 235.5,276.38 180.35,250.23 180.35,414.5 180.35,438.4 180.35,438.84 373.23,530.28 
		373.23,351.63 	"/>
	<path class="st2" d="M587.6,204.58l-203.4-94.52l-203.85,91.7l-21.79,9.8v28.32V424.3v28.32l21.79,10.33l192.87,91.44l10.84,5.14
		l10.95-5.07l191.9-88.89l21.79-10.09v-28.36V242.76V214.4L587.6,204.58z M586.93,228.83l-202.75,93.91l-50.9-24.13l188.85-100.42
		l64.79,30.11V228.83z M308.74,286.98l-8.13,4.33v15.94v52.84l-18.41-19.65h-24.9v-53.72v-15.37l8.78-4.59l189.8-99.34l41.49,19.28
		L308.74,286.98z M384.05,134.03l46.93,21.81l-189.57,99.22l-61.06-28.95v-0.44L384.05,134.03z M180.35,438.84v-0.44v-23.9V250.23
		l55.15,26.15v85.85h37.25l7.06,7.53l15.75,16.81l26.84,28.65v-40.73v-23.9v-33.02l35.74,16.94l15.09,7.15v9.96v178.65
		L180.35,438.84z M586.93,417v24.03v0.53l-191.9,88.89V351.86v-10.12l15-6.95l176.91-81.94V417z"/>
</g>
<g>
	<path class="st4" d="M397.29,436.16c-8.17,0-12.35,8.57-12.35,20.32c0,1.28,0.06,2.5,0.16,3.69c0.85,10.05,5.24,16.44,12.19,16.44
		c8.37,0,12.35-7.97,12.55-20.12c-0.01-0.36-0.03-0.71-0.04-1.07C409.4,443.86,405.6,436.16,397.29,436.16z"/>
	<path class="st4" d="M599.47,392.52l41.11-7.92l-5.05-26.24C622.46,363.66,606.4,373.76,599.47,392.52z"/>
	<path class="st4" d="M296.68,400.5c8.37,0,12.55-7.97,12.55-20.12c0-7.95-1.63-14.26-5.21-17.63c-1.89-1.78-4.31-2.76-7.34-2.69
		c-7.97,0-12.15,8.57-12.15,20.32c0,7.31,1.6,13.09,4.55,16.54C291.03,399.22,293.58,400.5,296.68,400.5z"/>
	<path class="st4" d="M138.86,259.09h210.5l4.37-10l23.87-4.6l-6.38,14.6h102.85l-2.08-10.81l25.43-4.9l3.02,15.71h46.38
		c0.82-22.26,10.63-42.1,28.99-58.17c9.16-8.01,18.78-13.55,25.88-17L593.42,141l-466.13,89.75l11.57,60.1V259.09z M494.15,226.43
		l-25.43,4.9l-3.26-16.96l25.43-4.9L494.15,226.43z M484.35,175.56l3.26,16.96l-25.43,4.9l-3.26-16.96L484.35,175.56z"/>
	<path class="st4" d="M570.86,424.4c-0.57-3.73-0.9-7.58-0.98-11.53h-0.27c0-5.12,0.4-10.06,1.17-14.83
		c3.93-24.19,17.74-43.73,40.53-57.05c0.18-0.1,0.35-0.2,0.53-0.3c10.33-5.95,20.6-9.49,28.1-11.5v-11.05v-32.66H577.8h-27.55
		h-44.73h-26.37H359.67h-21.86H306.7h-23.92h-19.76h-22.79h-74.99V414.7H165v13.23v74.62v31.07h475.19v-41.57
		c-7.59-1.96-18.07-5.43-28.56-11.33C588.43,467.66,574.54,448.36,570.86,424.4z M262.21,380.38c0-23.71,12.55-39.85,34.47-39.85
		c5.97,0,11.19,1.13,15.66,3.2c6.8,3.16,11.83,8.54,15.04,15.6c2.7,5.94,4.1,13.06,4.17,21.05c-0.2,23.71-12.55,39.65-34.87,39.65
		S262.21,403.69,262.21,380.38z M321.74,472.37l-12.51,18.18h-24.31l8.8-12.79l20.91-30.4l46.2-67.17l14.84-21.58l8.47-12.31h13.98
		h10.32l-8,11.63l-11.54,16.78l-12.45,18.1l-33.81,49.16L321.74,472.37z M397.29,496.33c-19.89-0.18-31.69-12.8-34.03-31.96
		c-0.31-2.52-0.46-5.16-0.44-7.89c-0.06-7.08,1.06-13.49,3.24-19.02c5.07-12.83,15.9-20.82,31.22-20.82
		c10.75,0,19.09,3.67,24.89,10.02c5.51,6.03,8.73,14.49,9.55,24.53c0.14,1.72,0.22,3.48,0.22,5.29
		C431.96,480.19,419.6,496.13,397.29,496.33z M526.31,523.27h-25.9V506h25.9V523.27z M526.31,488.74h-25.9v-17.27h25.9V488.74z
		 M526.31,454.2h-25.9v-16.24v-1.03h5.36h20.54V454.2z M526.31,406.61v13.06h-25.9v-8.07v-9.19h25.9V406.61z M526.31,385.14h-1.6
		h-24.29v-1.66v-15.61h25.9V385.14z M526.31,350.6h-8.25h-17.64v-2.29v-14.97h25.9V350.6z M526.31,316.07h-14.9h-10.99v-2.93V298.8
		h25.9V316.07z"/>
	
		<rect x="460.32" y="177.85" transform="matrix(0.982 -0.1891 0.1891 0.982 -26.7231 92.8455)" class="st5" width="25.9" height="17.27"/>
	
		<rect x="466.85" y="211.76" transform="matrix(0.982 -0.1891 0.1891 0.982 -33.0172 94.6928)" class="st5" width="25.9" height="17.27"/>
	<path class="st5" d="M654.78,468.67c-2.27-0.3-52.49-7.39-58.44-49.17l74.56-14.36l-10.2-52.98l5.63-0.73v-92.34H573.3
		c2.44-38.97,45.48-54,47.49-54.68l11.01-3.64l-17.46-90.68L96.38,209.82l29.42,152.8l0.24-0.05l13.06,67.82v129.11h526.98v-78
		l-0.04-11.37L654.78,468.67z M599.47,392.52c6.93-18.76,22.99-28.86,36.06-34.16l5.05,26.24L599.47,392.52z M593.42,141l8.27,42.93
		c-7.1,3.46-16.72,8.99-25.88,17c-18.36,16.07-28.18,35.91-28.99,58.17h-46.38l-3.02-15.71l-25.43,4.9l2.08,10.81H371.22l6.38-14.6
		l-23.87,4.6l-4.37,10h-210.5v31.76l-11.57-60.1L593.42,141z M640.19,533.62H165v-31.07v-74.62V414.7h0.25V285.48h74.99h22.79h19.76
		h23.92h31.11h21.86h119.47h26.37h44.73h27.55h62.15v32.66v11.05c-7.5,2.02-17.77,5.55-28.1,11.5c-0.18,0.1-0.35,0.2-0.53,0.3
		c-22.79,13.31-36.6,32.85-40.53,57.05c-0.77,4.77-1.17,9.71-1.17,14.83h0.27c0.07,3.95,0.4,7.8,0.98,11.53
		c3.67,23.96,17.57,43.26,40.76,56.31c10.5,5.9,20.98,9.37,28.56,11.33V533.62z"/>
	<path class="st5" d="M331.54,380.38c-0.07-7.99-1.47-15.11-4.17-21.05c-3.2-7.06-8.24-12.44-15.04-15.6
		c-4.47-2.08-9.69-3.2-15.66-3.2c-21.92,0-34.47,16.14-34.47,39.85c0,23.31,12.15,39.65,34.47,39.65S331.34,404.09,331.54,380.38z
		 M296.68,360.06c3.03-0.07,5.45,0.91,7.34,2.69c3.57,3.37,5.21,9.68,5.21,17.63c0,12.15-4.18,20.12-12.55,20.12
		c-3.1,0-5.65-1.28-7.6-3.58c-2.95-3.46-4.55-9.24-4.55-16.54C284.53,368.62,288.71,360.06,296.68,360.06z"/>
	<polygon class="st5" points="388.9,374.72 400.45,357.94 408.45,346.31 398.12,346.31 384.14,346.31 375.67,358.62 360.83,380.2 
		314.63,447.37 293.72,477.77 284.92,490.55 309.23,490.55 321.74,472.37 342.65,441.97 376.46,392.82 	"/>
	<path class="st5" d="M422.18,426.66c-5.8-6.35-14.14-10.02-24.89-10.02c-15.32,0-26.15,7.99-31.22,20.82
		c-2.18,5.53-3.3,11.95-3.24,19.02c-0.02,2.74,0.13,5.37,0.44,7.89c2.34,19.15,14.14,31.78,34.03,31.96
		c22.31-0.2,34.67-16.14,34.67-39.85c0-1.81-0.08-3.57-0.22-5.29C430.91,441.14,427.69,432.69,422.18,426.66z M397.29,476.61
		c-6.95,0-11.34-6.39-12.19-16.44c-0.1-1.18-0.16-2.41-0.16-3.69c0-11.75,4.18-20.32,12.35-20.32c8.31,0,12.11,7.7,12.51,19.25
		c0.01,0.36,0.03,0.71,0.04,1.07C409.64,468.64,405.66,476.61,397.29,476.61z"/>
	<polygon class="st5" points="500.41,436.94 500.41,437.97 500.41,454.2 526.31,454.2 526.31,436.94 505.77,436.94 	"/>
	<polygon class="st5" points="500.41,411.6 500.41,419.67 526.31,419.67 526.31,406.61 526.31,402.4 500.41,402.4 	"/>
	<rect x="500.41" y="471.47" class="st5" width="25.9" height="17.27"/>
	<polygon class="st5" points="500.41,383.48 500.41,385.14 524.71,385.14 526.31,385.14 526.31,367.87 500.41,367.87 	"/>
	<rect x="500.41" y="506" class="st5" width="25.9" height="17.27"/>
	<polygon class="st5" points="500.41,313.14 500.41,316.07 511.41,316.07 526.31,316.07 526.31,298.8 500.41,298.8 	"/>
	<polygon class="st5" points="500.41,348.31 500.41,350.6 518.06,350.6 526.31,350.6 526.31,333.34 500.41,333.34 	"/>
</g>
<g class="st0">
	<polygon class="st1" points="387.24,183.79 386.91,184.02 386.89,184.06 387.06,184.25 	"/>
	<path class="st1" d="M388.79,179.89l-0.71,1.57c0.02,0.03,0.04,0.05,0.06,0.08L388.79,179.89z"/>
	<path class="st1" d="M583.4,164.82c-34.55-27-69.15-38.15-102.86-33.15c-38.35,5.68-71.61,36.85-90.53,55.89l-7.71,8.06l-3.98-5.48
		c-0.02-0.02-1.68-2.36-4.8-6.04c-11.5-13.6-42.97-45.93-86.77-52.42c-33.7-4.99-68.32,6.16-102.87,33.16
		c-2.65,2.25-42.02,36.71-41.69,91.42c0.3,49.73,32.66,100.9,96.2,152.09l0.2,0.17l144.99,123.4l145.31-123.57
		c63.53-51.19,95.9-102.36,96.2-152.09C625.42,201.53,586.05,167.07,583.4,164.82z"/>
	<path class="st2" d="M596.61,148.49l-0.12-0.1c-39.33-30.78-79.41-43.39-119.1-37.49c-45.12,6.71-78.05,35.91-93.74,52.82
		c-15.69-16.91-48.62-46.11-93.74-52.82c-39.7-5.9-79.8,6.73-119.19,37.55l-0.12,0.1c-2.03,1.67-49.74,41.66-49.41,107.69
		c0.29,56.36,35.24,112.99,103.91,168.35l159.24,135.52l4.01-4.71l153.83-130.81c68.67-55.35,103.62-111.99,103.91-168.35
		C646.43,190.21,598.64,150.16,596.61,148.49z M528.89,408.33L383.58,531.89l-144.99-123.4l-0.2-0.17
		c-63.53-51.19-95.9-102.36-96.2-152.09c-0.33-54.71,39.05-89.17,41.69-91.42c34.55-26.99,69.17-38.15,102.87-33.16
		c43.8,6.49,75.27,38.82,86.77,52.42c3.11,3.68,4.78,6.02,4.8,6.04l3.98,5.48l7.71-8.06c18.92-19.04,52.18-50.2,90.53-55.89
		c33.71-5,68.31,6.16,102.86,33.15c2.65,2.25,42.02,36.71,41.69,91.42C624.8,305.97,592.43,357.14,528.89,408.33z"/>
</g>
<path class="st3" d="M596.61,148.49l-0.12-0.1c-39.33-30.78-79.41-43.39-119.1-37.49c-45.12,6.71-78.05,35.91-93.74,52.82
	c-15.69-16.91-48.62-46.11-93.74-52.82c-39.7-5.9-79.8,6.73-119.19,37.55l-0.12,0.1c-2.03,1.67-49.74,41.66-49.41,107.69
	c0.29,56.36,35.24,112.99,103.91,168.35l159.24,135.52l4.01-4.71l153.83-130.81c68.67-55.35,103.62-111.99,103.91-168.35
	C646.43,190.21,598.64,150.16,596.61,148.49z"/>
</svg>
