<?xml version="1.0" standalone="no"?>
<!DOCTYPE svg PUBLIC "-//W3C//DTD SVG 20010904//EN"
 "http://www.w3.org/TR/2001/REC-SVG-20010904/DTD/svg10.dtd">
<svg version="1.0" xmlns="http://www.w3.org/2000/svg"
 width="800.000000pt" height="337.000000pt" viewBox="0 0 800.000000 337.000000"
 preserveAspectRatio="xMidYMid meet">

<g transform="translate(0.000000,337.000000) scale(0.100000,-0.100000)"
fill="#000000" stroke="none">
<path d="M2828 3362 c-1 -5 -268 -738 -593 -1630 l-590 -1621 -70 -6 c-38 -3
-280 -5 -537 -3 l-467 3 900 1560 c495 858 905 1568 910 1578 9 16 -46 17
-1096 17 l-1105 0 0 -485 c0 -317 3 -485 10 -485 6 0 10 6 10 13 0 6 5 53 10
102 47 416 277 706 638 802 96 26 102 26 535 31 240 2 437 2 437 0 0 -5 -1761
-3058 -1802 -3125 l-20 -33 1226 0 1226 0 0 465 c0 303 -3 465 -10 465 -5 0
-10 -17 -10 -37 0 -68 -27 -208 -58 -296 -77 -223 -247 -405 -465 -495 -84
-35 -213 -69 -223 -59 -4 4 79 242 183 529 l190 523 541 3 540 2 26 -72 c15
-40 102 -282 195 -538 l169 -465 -194 -3 c-118 -1 -194 -6 -194 -12 0 -7 269
-10 755 -10 497 0 755 3 755 10 0 6 -70 10 -190 10 l-190 0 0 810 0 810 278 0
c210 0 302 -4 373 -16 252 -43 417 -167 480 -363 20 -59 23 -94 26 -321 l5
-255 -120 -330 -120 -330 -156 -3 c-93 -1 -156 -6 -156 -12 0 -6 121 -10 325
-10 210 0 325 4 325 10 0 6 -58 10 -155 10 -85 0 -155 3 -155 6 0 12 203 569
210 577 4 4 10 -18 14 -50 15 -129 66 -279 125 -370 77 -119 216 -214 356
-244 33 -7 110 -13 170 -13 166 1 271 35 370 118 51 44 39 59 -14 17 -60 -48
-145 -83 -215 -88 -116 -9 -204 63 -256 209 -22 59 -23 85 -30 408 -7 307 -10
354 -29 424 -11 44 -21 81 -21 83 0 1 177 3 394 3 l393 0 196 -537 195 -538
-194 -3 c-118 -1 -194 -6 -194 -12 0 -6 234 -10 655 -10 430 0 655 3 655 10 0
6 -75 10 -204 10 -112 0 -206 4 -208 9 -1 4 -268 740 -593 1635 -412 1136
-594 1625 -603 1624 -9 -2 -148 -372 -348 -923 -184 -506 -338 -930 -344 -943
-10 -22 -10 -22 -62 18 -121 92 -312 166 -503 196 -141 21 -151 25 -90 35 80
13 222 57 301 94 278 128 453 366 454 617 1 375 -293 670 -767 770 -106 22
-122 23 -870 26 -517 2 -763 0 -763 -7 0 -7 69 -12 193 -13 l192 -3 3 -1210
c1 -665 -2 -1205 -6 -1200 -5 6 -215 580 -468 1277 -252 697 -464 1268 -471
1268 -6 0 -13 -4 -15 -8z m1995 -151 c237 -63 377 -207 445 -459 24 -90 26
-112 26 -312 1 -222 -7 -298 -46 -410 -41 -122 -132 -210 -259 -252 -59 -20
-90 -22 -391 -26 l-328 -4 0 748 0 747 238 -6 c197 -4 250 -8 315 -26z m1562
-1196 c125 -346 243 -672 261 -722 l34 -93 -395 0 -394 0 -36 68 c-19 38 -60
97 -89 133 l-54 64 217 597 c119 328 219 594 222 590 3 -4 108 -290 234 -637z
m-3520 -81 c143 -394 262 -721 263 -725 2 -5 -231 -9 -528 -9 -421 0 -531 3
-528 13 66 189 523 1437 527 1437 3 0 123 -322 266 -716z"/>
</g>
</svg>
