<svg width="48" height="38" viewBox="0 0 48 38" fill="none" xmlns="http://www.w3.org/2000/svg">
<path d="M3.6 0C1.6125 0 0 1.5957 0 3.5625V27.3125C0 29.2793 1.6125 30.875 3.6 30.875H4.8C4.8 34.8086 8.025 38 12 38C15.975 38 19.2 34.8086 19.2 30.875H28.8C28.8 34.8086 32.025 38 36 38C39.975 38 43.2 34.8086 43.2 30.875H45.6C46.9275 30.875 48 29.8137 48 28.5C48 27.1863 46.9275 26.125 45.6 26.125V21.375V19V17.6121C45.6 16.3504 45.0975 15.1406 44.1975 14.25L38.4 8.51289C37.5 7.62227 36.2775 7.125 35.0025 7.125H31.2V3.5625C31.2 1.5957 29.5875 0 27.6 0H3.6ZM31.2 11.875H35.0025L40.8 17.6121V19H31.2V11.875ZM8.4 30.875C8.4 29.9302 8.77929 29.024 9.45442 28.3559C10.1295 27.6878 11.0452 27.3125 12 27.3125C12.9548 27.3125 13.8705 27.6878 14.5456 28.3559C15.2207 29.024 15.6 29.9302 15.6 30.875C15.6 31.8198 15.2207 32.726 14.5456 33.3941C13.8705 34.0622 12.9548 34.4375 12 34.4375C11.0452 34.4375 10.1295 34.0622 9.45442 33.3941C8.77929 32.726 8.4 31.8198 8.4 30.875ZM36 27.3125C36.9548 27.3125 37.8705 27.6878 38.5456 28.3559C39.2207 29.024 39.6 29.9302 39.6 30.875C39.6 31.8198 39.2207 32.726 38.5456 33.3941C37.8705 34.0622 36.9548 34.4375 36 34.4375C35.0452 34.4375 34.1295 34.0622 33.4544 33.3941C32.7793 32.726 32.4 31.8198 32.4 30.875C32.4 29.9302 32.7793 29.024 33.4544 28.3559C34.1295 27.6878 35.0452 27.3125 36 27.3125Z" fill="#321B14"/>
</svg>
