<svg width="47" height="35" viewBox="0 0 47 35" fill="none" xmlns="http://www.w3.org/2000/svg">
<path d="M25.1771 5.78125C26.0875 5.23438 26.6944 4.24219 26.6944 3.125C26.6944 1.39844 25.2649 0 23.5 0C21.7351 0 20.3056 1.39844 20.3056 3.125C20.3056 4.25 20.9125 5.23438 21.8229 5.78125L17.2469 14.7344C16.5201 16.1562 14.6354 16.5625 13.3656 15.5703L6.25 10C6.64931 9.47656 6.88889 8.82812 6.88889 8.125C6.88889 6.39844 5.45937 5 3.69444 5C1.92951 5 0.5 6.39844 0.5 8.125C0.5 9.85156 1.92951 11.25 3.69444 11.25C3.71042 11.25 3.73438 11.25 3.75035 11.25L7.4 30.8906C7.83924 33.2656 9.95555 35 12.4312 35H34.5688C37.0365 35 39.1528 33.2734 39.6 30.8906L43.2497 11.25C43.2656 11.25 43.2896 11.25 43.3056 11.25C45.0705 11.25 46.5 9.85156 46.5 8.125C46.5 6.39844 45.0705 5 43.3056 5C41.5406 5 40.1111 6.39844 40.1111 8.125C40.1111 8.82812 40.3507 9.47656 40.75 10L33.6344 15.5703C32.3646 16.5625 30.4799 16.1562 29.7531 14.7344L25.1771 5.78125Z" fill="#321B14"/>
</svg>
