<svg width="57" height="38" viewBox="0 0 57 38" fill="none" xmlns="http://www.w3.org/2000/svg">
<path d="M6.33333 0C2.8401 0 0 2.80273 0 6.25V31.25C0 34.6973 2.8401 37.5 6.33333 37.5H50.6667C54.1599 37.5 57 34.6973 57 31.25V6.25C57 2.80273 54.1599 0 50.6667 0H6.33333ZM26.9167 12.5H49.0833C49.9542 12.5 50.6667 13.2031 50.6667 14.0625C50.6667 14.9219 49.9542 15.625 49.0833 15.625H26.9167C26.0458 15.625 25.3333 14.9219 25.3333 14.0625C25.3333 13.2031 26.0458 12.5 26.9167 12.5ZM25.3333 23.4375C25.3333 22.5781 26.0458 21.875 26.9167 21.875H49.0833C49.9542 21.875 50.6667 22.5781 50.6667 23.4375C50.6667 24.2969 49.9542 25 49.0833 25H26.9167C26.0458 25 25.3333 24.2969 25.3333 23.4375ZM16.2292 8.59375V9.95117C16.9714 10.0684 17.674 10.2344 18.3172 10.4102C19.376 10.6836 19.9995 11.7578 19.7224 12.8027C19.4453 13.8477 18.3568 14.4629 17.2979 14.1895C16.2094 13.9062 15.1604 13.7012 14.2104 13.6816C13.4286 13.6719 12.6271 13.8574 12.0828 14.1699C11.6078 14.4434 11.4693 14.7168 11.4693 15.0781C11.4693 15.2539 11.4792 15.4199 11.9937 15.7324C12.6172 16.1035 13.5276 16.3867 14.7943 16.7578L14.8635 16.7773C15.9719 17.1094 17.3969 17.5293 18.5349 18.2422C19.8115 19.0332 20.9396 20.3223 20.9693 22.3047C20.999 24.3457 19.9302 25.8301 18.5151 26.6992C17.8026 27.1387 17.0109 27.4121 16.2193 27.5781V28.9062C16.2193 29.9805 15.3286 30.8594 14.2401 30.8594C13.1516 30.8594 12.2609 29.9805 12.2609 28.9062V27.4805C11.2417 27.2656 10.2818 26.9434 9.47031 26.6602C9.2625 26.5918 9.06458 26.5234 8.86667 26.4551C7.8276 26.1133 7.27344 25.0098 7.61979 23.9844C7.96615 22.959 9.08438 22.4121 10.1234 22.7539C10.3708 22.832 10.6083 22.9199 10.8359 22.9883C12.1818 23.4375 13.2109 23.7793 14.3094 23.8184C15.1604 23.8477 15.9422 23.6621 16.4271 23.3594C16.8328 23.1152 17.0208 22.8223 17.0109 22.334C17.0109 22.0508 16.9318 21.8457 16.4271 21.5332C15.8036 21.1426 14.9031 20.8594 13.6562 20.4883L13.488 20.4395C12.4094 20.1172 11.0536 19.7168 9.9651 19.0723C8.70833 18.3203 7.53073 17.0703 7.52083 15.0977C7.51094 13.0371 8.68854 11.6113 10.074 10.8105C10.7568 10.4102 11.5089 10.1465 12.2708 9.98047V8.59375C12.2708 7.51953 13.1615 6.64062 14.25 6.64062C15.3385 6.64062 16.2292 7.51953 16.2292 8.59375Z" fill="#321B14"/>
</svg>
