<svg width="39" height="38" viewBox="0 0 39 38" fill="none" xmlns="http://www.w3.org/2000/svg">
<g clip-path="url(#clip0_237_2433)">
<path d="M38.5 5.9375C38.5 7.27344 37.4387 8.50547 35.65 9.5C33.4902 10.6949 30.2691 11.541 26.573 11.7934C26.2984 11.6598 26.0238 11.5336 25.7344 11.4223C22.8102 10.1977 18.9211 9.5 14.75 9.5C14.134 9.5 13.5328 9.51484 12.9316 9.54453L12.85 9.5C11.0613 8.50547 10 7.27344 10 5.9375C10 2.65703 16.3828 0 24.25 0C32.1172 0 38.5 2.65703 38.5 5.9375ZM12.427 11.9566C13.184 11.9047 13.9633 11.875 14.75 11.875C19.3664 11.875 23.4633 12.7879 26.0684 14.2055C27.909 15.2074 29 16.4543 29 17.8125C29 18.1094 28.948 18.3988 28.8441 18.6809C28.5027 19.6605 27.5824 20.5586 26.2465 21.3156C26.2391 21.323 26.2242 21.323 26.2168 21.3305C26.1945 21.3453 26.1723 21.3527 26.15 21.3676C23.5523 22.8074 19.4109 23.7426 14.75 23.7426C10.3266 23.7426 6.3707 22.9039 3.75078 21.5828C3.60977 21.516 3.47617 21.4418 3.34258 21.3676C1.56133 20.3805 0.5 19.1484 0.5 17.8125C0.5 15.2297 4.46328 13.0254 10 12.2164C10.7793 12.1051 11.5883 12.016 12.427 11.9566ZM31.375 17.8125C31.375 16.1871 30.5883 14.8512 29.5863 13.8492C31.6867 13.5227 33.609 13.0031 35.2418 12.3277C36.4516 11.823 37.5797 11.1996 38.5 10.4352V13.0625C38.5 14.4949 37.2754 15.816 35.2492 16.8402C34.1656 17.3895 32.8445 17.857 31.3602 18.2133C31.3676 18.0797 31.375 17.9535 31.375 17.8199V17.8125ZM29 24.9375C29 26.2734 27.9387 27.5055 26.15 28.5C26.0164 28.5742 25.8828 28.641 25.7418 28.7152C23.1293 30.0363 19.1734 30.875 14.75 30.875C10.0891 30.875 5.94766 29.9398 3.35 28.5C1.56133 27.5055 0.5 26.2734 0.5 24.9375V22.3102C1.42773 23.0746 2.54844 23.698 3.7582 24.2027C6.68984 25.4273 10.5789 26.125 14.75 26.125C18.9211 26.125 22.8102 25.4273 25.7418 24.2027C26.3207 23.9652 26.8773 23.6906 27.4043 23.3938C27.857 23.1414 28.2801 22.8594 28.6809 22.5625C28.7922 22.4809 28.8961 22.3918 29 22.3102V22.5625V22.9855V24.9375ZM31.375 24.9375V22.5625V20.6402C32.7852 20.3285 34.084 19.9352 35.2418 19.4527C36.4516 18.948 37.5797 18.3246 38.5 17.5602V20.1875C38.5 20.9668 38.1289 21.7461 37.3941 22.4809C36.1844 23.6906 34.0543 24.6852 31.3602 25.3309C31.3676 25.2047 31.375 25.0711 31.375 24.9375ZM14.75 33.25C18.9211 33.25 22.8102 32.5523 25.7418 31.3277C26.9516 30.823 28.0797 30.1996 29 29.4352V32.0625C29 35.343 22.6172 38 14.75 38C6.88281 38 0.5 35.343 0.5 32.0625V29.4352C1.42773 30.1996 2.54844 30.823 3.7582 31.3277C6.68984 32.5523 10.5789 33.25 14.75 33.25Z" fill="#321B14"/>
</g>
<defs>
<clipPath id="clip0_237_2433">
<rect width="38" height="38" fill="white" transform="translate(0.5)"/>
</clipPath>
</defs>
</svg>
